# xmcd
#
# Track frame offsets: 
#        151
#        111947
#        224085
#
# Disc length: 4482 seconds
#
# Revision: 12
# Processed by: cddbd v1.5.2PL0 Copyright (c) Steve Scherf et al.
# Submitted via: ExactAudioCopy v0.99pb4
#
DISCID=2c118003
DTITLE=Left Behind Audio Theater - Book 2 - Tribulation Force [CD4]
DYEAR=1999
DGENRE=Dramatic Audio
TTITLE0=Episode 10 - Evangelism Explosion
TTITLE1=Episode 11 - Unfolding Plans
TTITLE2=Episode 12 - Death Strike
EXTD=YEAR: 1999
EXTT0=
EXTT1=
EXTT2=
PLAYORDER=
